<?xml version="1.0" encoding="utf-8"?>
<svg version="1.1" xmlns="http://www.w3.org/2000/svg" xmlns:xlink="http://www.w3.org/1999/xlink" x="0px" y="0px"
	 viewBox="0 0 256 256" style="enable-background:new 0 0 256 256;" xml:space="preserve">
<style type="text/css">
	.st0{fill:#3686C9;}
	.st1{fill:#FFFFFF;}
	.st2{opacity:0.3;fill:#3686C9;}
	.st3{opacity:0.3;}
</style>
<rect y="0" class="st0" width="256" height="256"/>
<title>EXT:bolt</title>
<g>
	<path class="st1" d="M128,112c-8.7,0-16,7.3-16,16c0,8.7,7.3,16,16,16c8.7,0,16-7.3,16-16C144,119.3,137.2,112,128,112z
		 M170.7,128.5c0,1.9,0,3.9-0.5,5.3l11.7,9.2c1,1,1.5,2.4,0.5,3.4l-11.2,19.4c-0.5,1-1.9,1.5-3.4,1l-14.1-5.8
		c-2.9,2.4-6.3,3.9-9.7,5.3l-1.9,15.1c0,1.5-1.5,2.4-2.9,2.4h-22.8c-1.5,0-2.4-1-2.9-2.4l-1.5-14.1c-3.4-1.5-6.8-3.4-9.7-5.3
		l-14.1,5.8c-1.5,0.5-2.9,0-3.4-1l-11.2-19.4c-0.5-1-0.5-2.9,0.5-3.4l12.1-9.2c0-1.9-0.5-3.9-0.5-5.3c0-1.9,0-3.9,0.5-5.3l-12.1-9.2
		c-1-1-1.5-2.4-0.5-3.4l11.2-19.4c0.5-1,1.9-1.5,3.4-1l14.1,5.8c2.9-2.4,6.3-3.9,9.7-5.3l1.9-17.5c0-1.5,1.5-2.4,2.9-2.4h22.8
		c1.5,0,2.4,1,2.9,2.4l1.9,15.1c3.4,1.5,6.8,3.4,9.7,5.3l14.1-5.8c1.5-0.5,2.9,0,3.4,1l11.2,19.4c0.5,1,0.5,2.9-0.5,3.4l-12.1,9.2
		C170.3,124.6,170.7,126.5,170.7,128.5z"/>
	<path class="st2" d="M128.1,107.4c3.1,0,6.1-1.7,7.6-4.4l8.6-14.9l-1.8-14c0-0.1-0.1-0.2-0.1-0.3l-14.3,24.8L113.9,74
		c0,0,0,0,0,0.1l-1.6,14.7l8.2,14.2C122.1,105.8,125,107.4,128.1,107.4z"/>
	<path class="st2" d="M113.7,145.6c-1.6-2.7-4.5-4.4-7.6-4.4l-28.3,0l-3.7,2.8c-1,0.5-1,2.4-0.5,3.4l1.5,2.6l31,0l-7.9,13.6l4-1.7
		c1.6,1.1,3.4,2.2,5.3,3.2l6.2-10.7C115.3,151.7,115.3,148.4,113.7,145.6z"/>
	<path class="st2" d="M150.2,150l30.2,0l2.1-3.6c1-1,0.5-2.4-0.5-3.4l-2.3-1.8l-29.4,0c-3.1,0-6.1,1.7-7.6,4.4
		c-1.6,2.7-1.6,6.1,0,8.8l5.8,10c1.9-0.9,3.8-2,5.4-3.4l3.6,1.5L150.2,150z"/>
	<g>
		<path class="st1" d="M128,240.1c-61.8,0-112.1-50.3-112.1-112.1C15.9,66.2,66.2,15.9,128,15.9S240.1,66.2,240.1,128
			C240.1,189.8,189.8,240.1,128,240.1z M128,30.6c-53.7,0-97.4,43.7-97.4,97.4c0,53.7,43.7,97.4,97.4,97.4s97.4-43.7,97.4-97.4
			C225.4,74.3,181.7,30.6,128,30.6z"/>
	</g>
	<path class="st1" d="M225.5,183.3l-31.1-18l8.8-15.3l-53,0l26.5,45.9l8.8-15.3l30,17.3C219.2,193.4,222.5,188.5,225.5,183.3z"/>
	<path class="st1" d="M128,15.9c-2.9,0-5.8,0.1-8.7,0.3v36.5h-17.6l26.5,45.9l26.5-45.9H137V16.3C134,16,131,15.9,128,15.9z"/>
	<path class="st1" d="M61.9,165.3l-31.3,18.1c2.9,5.2,6.3,10.1,10,14.7l30.2-17.4l8.8,15.3l26.5-45.9l-53,0L61.9,165.3z"/>
	<g class="st3">
		<path class="st0" d="M131.6,16c-0.3,0-0.7,0-1,0C130.9,15.9,131.3,16,131.6,16z"/>
		<path class="st0" d="M134.4,16.1c-0.4,0-0.9,0-1.3-0.1C133.5,16,134,16.1,134.4,16.1z"/>
		<path class="st0" d="M137,16.3V31c3,0.3,5.9,0.7,8.8,1.2V17.3c-3.4-0.5-6.8-0.9-10.3-1.2C136,16.2,136.5,16.2,137,16.3z"/>
		<path class="st0" d="M125.4,15.9c-0.3,0-0.6,0-0.8,0C124.8,16,125.1,15.9,125.4,15.9z"/>
		<path class="st0" d="M122.8,16c-0.3,0-0.6,0-1,0C122.2,16.1,122.5,16,122.8,16z"/>
		<path class="st0" d="M110.5,32.2c2.9-0.5,5.8-0.9,8.8-1.2V16.2c0.2,0,0.5,0,0.7,0c-3.2,0.2-6.4,0.6-9.5,1.1V32.2z"/>
	</g>
	<g class="st3">
		<path class="st0" d="M176.1,212.7l0.5,0.9l1.1-1.8C177.2,212,176.7,212.4,176.1,212.7z"/>
		<path class="st0" d="M223.1,187.2c-2.3,3.7-4.9,7.3-7.6,10.8l-12.9-7.4c-1.9,2.3-4,4.5-6.1,6.6l13.1,7.6
			C214.7,199.4,219.2,193.5,223.1,187.2z"/>
		<path class="st0" d="M223.3,187c0.8-1.2,1.5-2.5,2.2-3.7C224.8,184.5,224,185.8,223.3,187z"/>
		<path class="st0" d="M212.8,175.9l12.7,7.3c1.5-2.5,2.8-5.2,4.1-7.8l-12.8-7.4C215.6,170.8,214.2,173.4,212.8,175.9z"/>
	</g>
	<g class="st3">
		<path class="st0" d="M33,187.4c2.3,3.7,4.9,7.3,7.6,10.7C37.8,194.7,35.3,191.1,33,187.4z"/>
		<path class="st0" d="M30.6,183.4l12.7-7.3c-1.5-2.5-2.8-5.2-4-7.9l-12.8,7.4C27.8,178.2,29.1,180.9,30.6,183.4z"/>
		<path class="st0" d="M59.6,197.3c-2.1-2.1-4.2-4.3-6.1-6.6l-12.9,7.4c1.9,2.3,3.8,4.6,5.9,6.8L59.6,197.3z"/>
		<path class="st0" d="M30.6,183.4c0.7,1.2,1.4,2.5,2.2,3.7C32,185.9,31.3,184.6,30.6,183.4z"/>
		<path class="st0" d="M80.1,212.8c-0.5-0.3-0.9-0.5-1.4-0.8l0.9,1.6L80.1,212.8z"/>
	</g>
</g>
</svg>
